<svg xmlns="http://www.w3.org/2000/svg" viewBox="0 0 65 39" width="65" height="39">
	<style>
		tspan { white-space:pre }
		.shp0 { fill: #000000 } 
		.shp1 { fill: #1a3b68 } 
	</style>
	<path id="Layer" class="shp0" d="M17.88,22.45h2.72l-0.02,-17.35h-2.69z" />
	<path id="Layer" class="shp0" d="M17.79,2.5h2.81c0,-3.01 -2.82,-2.49 -2.82,-2.49z" />
	<path id="Layer" class="shp0" d="M8.47,19.94l0.03,-17.44c0,-3.01 -2.82,-2.49 -2.82,-2.49l0,0.07l0,0v22.41h10.67v-2.56z" />
	<path id="Layer" class="shp0" d="M34.24,12.54v-3.45c-1.07,-0.62 -2.44,-0.92 -3.69,-0.92c-4.28,0 -7.61,3.18 -7.61,7.49c0,4.16 3.36,7.31 7.46,7.31c1.4,0 2.62,-0.27 3.83,-0.92v-3.42c-1.01,1.13 -2.26,1.84 -3.8,1.84c-2.82,0 -4.81,-2.08 -4.81,-4.93c0,-2.56 2.02,-4.87 4.64,-4.87c1.6,0 2.91,0.65 3.98,1.87z" />
	<path id="Layer" class="shp1" d="M43.48,8.17c-4.16,0 -7.43,3.21 -7.43,7.4c0,2.87 1.53,5.28 3.84,6.51l0.21,-3.34c-0.72,-0.86 -1.37,-1.98 -1.37,-3.17c0,-2.65 2.11,-4.84 4.76,-4.84c2.65,0 4.76,2.2 4.76,4.84c0,1.45 -0.96,2.76 -1.99,3.66l0.32,3.1c2.58,-1.14 4.35,-3.68 4.35,-6.76c0,-4.19 -3.27,-7.4 -7.43,-7.4z" />
	<path id="Layer" class="shp0" d="M48.92,32.01h0c0,0 0,0 0,0zM53.11,36.62c2.05,0 3.15,-1.04 4.16,-2.7l2,1.71c-1.31,2.41 -3.49,3.37 -6.19,3.37c-4.25,0 -6.84,-3.21 -6.84,-7.31c0,-4.28 2.29,-7.49 6.78,-7.49c4.43,0 6.51,3.27 6.51,7.4v0.42l-10.61,0c0.03,2.38 1.63,4.61 4.19,4.61zM56.85,29.99c-0.33,-2.08 -1.69,-3.48 -3.83,-3.48c-2.08,0 -3.63,1.49 -3.95,3.48z" />
	<path id="Layer" class="shp0" d="M44.61,38.52h-2.67v-2.17h-0.06c-1.07,1.58 -2.76,2.65 -4.73,2.65c-4.28,0 -6.66,-3.54 -6.66,-7.52c0,-3.8 2.53,-7.28 6.54,-7.28c2.08,0 3.74,1.07 4.84,2.73h0.06v-8.36c0,-2.71 2.24,-2.55 2.67,-2.49M42.08,31.57c0,-2.7 -1.63,-4.99 -4.52,-4.99c-2.76,0 -4.4,2.41 -4.4,4.99c0,2.62 1.58,5.05 4.4,5.05c2.91,0 4.52,-2.32 4.52,-5.05z" />
</svg>